# xmcd
#
# Track frame offsets:
#  150
#  19446
#  49255
#  68725
#  86804
#  110092
#  127112
#  146724
#  168026
#  203629
#  227017
#  246553
#  267921
#  289162
#  313188
#
# Disc length: 4550 seconds
#
# Revision: 1
# Processed by: cddbd v1.5.1PL0 Copyright (c) Steve Scherf et al.
# Submitted via: Collectorz.com Music Collector 6.9
#
DISCID=e911c40f
DTITLE=Calvin Owens - True Blue [remixed and Remastered]
DYEAR=2005
DGENRE=Blues -  Blues BigBand -  Blues Jazz
TTITLE0=True Blue
TTITLE1=Hot Burning Fever
TTITLE2=Don't You Want A Man Like Me
TTITLE3=Texas Stomp
TTITLE4=Sitting Here
TTITLE5=Sweet Meat
TTITLE6=Cherry Red
TTITLE7=Woke Up Screaming
TTITLE8=Lick Or Split
TTITLE9=Deviation
TTITLE10=Don't You Want A Woman Like Me
TTITLE11=Dreams Come True
TTITLE12=The Christmas Song
TTITLE13=No More Blues
TTITLE14=True Blue
EXTD=
EXTT0=
EXTT1=
EXTT2=
EXTT3=
EXTT4=
EXTT5=
EXTT6=
EXTT7=
EXTT8=
EXTT9=
EXTT10=
EXTT11=
EXTT12=
EXTT13=
EXTT14=
PLAYORDER=
